# xmcd
#
# Track frame offsets:
#	150
#	26409
#	48740
#	73077
#	92204
#	114813
#	135556
#	157497
#	182113
#	207759
#	230731
#	250499
#	270322
#	290925
#
# Disc length: 4185 seconds
#
# Revision: 0
# Processed by: cddbd v1.5.2PL0 Copyright (c) Steve Scherf et al.
# Submitted via: EasyCDDAExtractor 12.0.1.1
#
DISCID=d810570e
DTITLE=齐秦 - 我拿什么爱你
DYEAR=1998
DGENRE=pop
TTITLE0=让我让你崩溃
TTITLE1=我拿什么爱你
TTITLE2=海和天空
TTITLE3=朦胧
TTITLE4=结局
TTITLE5=末日前一秒
TTITLE6=猫眼看人
TTITLE7=缺口
TTITLE8=和爱无关的故事
TTITLE9=多少
TTITLE10=流浪者之歌
TTITLE11=烟囱
TTITLE12=痛并快乐着
TTITLE13=直到世界末日
EXTD=
EXTT0=
EXTT1=
EXTT2=
EXTT3=
EXTT4=
EXTT5=
EXTT6=
EXTT7=
EXTT8=
EXTT9=
EXTT10=
EXTT11=
EXTT12=
EXTT13=
PLAYORDER=
